<svg width="2132" height="622" viewBox="0 0 2132 622" fill="none" xmlns="http://www.w3.org/2000/svg">
<path d="M518.104 425.182L324.272 530.111V303.85L518.104 195.09V425.182ZM547.146 156.383L326.784 41.0654C321.285 38.1877 314.691 38.3248 309.314 41.4282L89.6681 168.242C84.0589 171.482 80.605 177.466 80.605 183.944V437.977C80.605 444.455 84.0589 450.439 89.6681 453.679L309.67 580.697C315.283 583.931 322.19 583.931 327.803 580.697L547.805 453.679C553.414 450.439 556.868 444.455 556.868 437.977V172.445C556.868 165.699 553.121 159.511 547.146 156.383Z" fill="white"/>
<path d="M410.114 326.654L374.798 347.049V439.731L410.114 419.34V326.654Z" fill="white"/>
<path d="M487.645 282.352L452.329 302.746V395.426L487.645 375.038V282.352Z" fill="white"/>
<path d="M783.437 197.043V274.596C783.437 282.278 781.608 288.131 778.316 294.716C776.852 298.374 774.292 302.764 777.95 304.593C781.608 306.422 783.803 301.666 784.534 300.203C796.241 279.717 815.629 264.353 845.626 264.353C895.743 264.353 929.764 308.251 929.764 363.855C929.764 419.459 895.743 463.358 845.626 463.358C816.361 463.358 796.241 448.359 784.534 427.142C783.803 426.044 782.34 422.386 779.047 423.483C775.023 424.947 776.486 428.605 778.316 432.263C781.608 438.848 783.437 444.701 783.437 452.017V460.431H736.612V197.043H783.437ZM834.651 420.923C867.575 420.923 882.939 394.584 882.939 363.855C882.939 333.127 867.575 306.788 834.651 306.788C803.923 306.788 783.437 333.127 783.437 363.855C783.437 394.584 803.923 420.923 834.651 420.923ZM932.905 267.28H982.656L1025.82 392.023C1028.38 399.705 1028.75 406.656 1028.75 413.972C1028.75 416.533 1029.11 420.191 1033.14 420.191C1037.16 420.191 1037.53 416.899 1037.53 413.972C1037.53 407.022 1038.26 399.705 1040.82 392.023L1082.16 267.28H1131.91L1049.97 482.746C1036.8 517.133 1018.51 530.668 984.851 530.668H949.732V489.696H965.828C993.63 489.696 999.117 489.696 1004.24 474.698L1008.26 462.992L932.905 267.28ZM1266.65 308.251H1213.97V396.413C1213.97 417.63 1214.33 419.459 1234.09 419.459H1266.65V460.431H1224.21C1185.44 460.431 1167.14 447.627 1167.14 401.169V308.251H1132.03V267.28H1167.14V214.602H1213.97V267.28H1266.65V308.251ZM1468.43 361.295C1468.43 366.416 1468.07 370.074 1467.33 375.561H1326.86C1330.15 404.827 1349.18 422.386 1378.44 422.386C1400.76 422.386 1412.1 410.314 1417.58 393.121H1465.14C1456.73 432.995 1429.66 463.358 1378.07 463.358C1315.52 463.358 1281.13 421.289 1281.13 363.855C1281.13 303.496 1318.45 264.353 1377.34 264.353C1421.97 264.353 1468.43 291.058 1468.43 361.295ZM1328.69 343.37H1421.61C1419.78 319.957 1405.88 302.398 1378.81 302.398C1346.98 302.398 1333.45 320.323 1328.69 343.37ZM1538.65 197.043V274.596C1538.65 282.278 1536.82 288.131 1533.53 294.716C1532.06 298.374 1529.5 302.764 1533.16 304.593C1536.82 306.422 1539.01 301.666 1539.75 300.203C1551.45 279.717 1570.84 264.353 1600.84 264.353C1650.95 264.353 1684.98 308.251 1684.98 363.855C1684.98 419.459 1650.95 463.358 1600.84 463.358C1571.57 463.358 1551.45 448.359 1539.75 427.142C1539.01 426.044 1537.55 422.386 1534.26 423.483C1530.23 424.947 1531.7 428.605 1533.53 432.263C1536.82 438.848 1538.65 444.701 1538.65 452.017V460.431H1491.82V197.043H1538.65ZM1589.86 420.923C1622.79 420.923 1638.15 394.584 1638.15 363.855C1638.15 333.127 1622.79 306.788 1589.86 306.788C1559.13 306.788 1538.65 333.127 1538.65 363.855C1538.65 394.584 1559.13 420.923 1589.86 420.923ZM1802.11 264.353C1862.47 264.353 1898.69 308.983 1898.69 363.855C1898.69 418.728 1862.47 463.358 1802.11 463.358C1741.75 463.358 1705.54 418.728 1705.54 363.855C1705.54 308.983 1741.75 264.353 1802.11 264.353ZM1802.11 420.923C1833.94 420.923 1851.86 395.316 1851.86 363.855C1851.86 332.395 1833.94 306.788 1802.11 306.788C1770.29 306.788 1752.36 332.395 1752.36 363.855C1752.36 395.316 1770.29 420.923 1802.11 420.923ZM2036.15 308.251H1983.47V396.413C1983.47 417.63 1983.84 419.459 2003.59 419.459H2036.15V460.431H1993.71C1954.94 460.431 1936.65 447.627 1936.65 401.169V308.251H1901.53V267.28H1936.65V214.602H1983.47V267.28H2036.15V308.251Z" fill="white"/>
</svg>
