<svg width="256" height="256" viewBox="0 0 256 256" fill="none" xmlns="http://www.w3.org/2000/svg">
<rect width="256" height="256" fill="white"/>
<path d="M195.022 166.417L130.04 201.594V125.741L195.022 89.2791V166.417ZM204.758 76.3028L130.882 37.6428C129.039 36.678 126.828 36.724 125.025 37.7644L51.3895 80.2784C49.509 81.3648 48.3511 83.3709 48.3511 85.5427V170.707C48.3511 172.878 49.509 174.885 51.3895 175.971L125.145 218.553C127.026 219.638 129.342 219.638 131.224 218.553L204.979 175.971C206.86 174.885 208.018 172.878 208.018 170.707V81.6877C208.018 79.4261 206.762 77.3514 204.758 76.3028Z" fill="black"/>
<path d="M158.819 133.386L146.979 140.223V171.295L158.819 164.459V133.386Z" fill="black"/>
<path d="M184.811 118.534L172.971 125.371V156.441L184.811 149.606V118.534Z" fill="black"/>
</svg>
