<svg width="637" height="622" viewBox="0 0 637 622" fill="none" xmlns="http://www.w3.org/2000/svg">
<path d="M518.104 425.182L324.272 530.111V303.85L518.104 195.09V425.182ZM547.146 156.383L326.784 41.0654C321.285 38.1877 314.691 38.3248 309.314 41.4282L89.6681 168.242C84.0589 171.482 80.605 177.466 80.605 183.944V437.977C80.605 444.455 84.0589 450.439 89.6681 453.679L309.67 580.697C315.283 583.931 322.19 583.931 327.803 580.697L547.805 453.679C553.414 450.439 556.868 444.455 556.868 437.977V172.445C556.868 165.699 553.121 159.511 547.146 156.383Z" fill="black"/>
<path d="M410.114 326.654L374.798 347.049V439.731L410.114 419.34V326.654Z" fill="black"/>
<path d="M487.645 282.352L452.329 302.746V395.426L487.645 375.038V282.352Z" fill="black"/>
</svg>
